<svg width="24" height="24" viewBox="0 0 24 24" fill="none" xmlns="http://www.w3.org/2000/svg">
<path d="M19.7339 7.40119C19.6439 7.45551 17.5005 8.60178 17.5005 11.1433C17.6015 14.0418 20.2053 15.0583 20.25 15.0583C20.2053 15.1126 19.8569 16.443 18.8247 17.8375C18.0056 19.0388 17.0964 20.25 15.7158 20.25C14.4025 20.25 13.9311 19.4494 12.4158 19.4494C10.7885 19.4494 10.328 20.25 9.08209 20.25C7.70148 20.25 6.72494 18.9739 5.86114 17.7839C4.73894 16.2264 3.7851 13.7822 3.75142 11.4354C3.72873 10.1917 3.97616 8.96929 4.60424 7.93094C5.49073 6.48135 7.07339 5.49732 8.80172 5.46487C10.126 5.42185 11.3045 6.34098 12.1127 6.34098C12.8872 6.34098 14.3352 5.46487 15.9735 5.46487C16.6806 5.46558 18.5663 5.67085 19.7339 7.40119ZM12.0007 5.21658C11.765 4.08089 12.4158 2.9452 13.0219 2.22075C13.7964 1.34465 15.0196 0.75 16.0745 0.75C16.1418 1.88569 15.7151 2.99951 14.9523 3.81072C14.2678 4.68682 13.0892 5.34637 12.0007 5.21658Z" fill="#283544"/>
</svg>
