<svg width="64" height="64" viewBox="0 0 64 64" fill="none" xmlns="http://www.w3.org/2000/svg">
<path d="M5.33398 16L23.7687 26.4453C30.5649 30.296 33.4364 30.296 40.2326 26.4453L58.6673 16" stroke="#B23137" stroke-width="2" stroke-linejoin="round"/>
<path d="M5.37604 35.935C5.55036 44.1099 5.63753 48.1971 8.65388 51.2251C11.6702 54.2528 15.8682 54.3582 24.2642 54.5691C29.4388 54.6992 34.5625 54.6992 39.7372 54.5691C48.1332 54.3582 52.3311 54.2528 55.3476 51.2251C58.3639 48.1971 58.4511 44.1099 58.6252 35.935C58.6815 33.3064 58.6815 30.6936 58.6252 28.0651C58.4511 19.8903 58.3639 15.803 55.3476 12.7751C52.3311 9.74732 48.1332 9.64186 39.7372 9.4309C34.5625 9.30087 29.4388 9.30087 24.2642 9.43087C15.8682 9.6418 11.6702 9.74727 8.65385 12.7751C5.6375 15.8029 5.55036 19.8903 5.37601 28.0651C5.31996 30.6936 5.31998 33.3064 5.37604 35.935Z" stroke="#B23137" stroke-width="2" stroke-linejoin="round"/>
</svg>
