<svg width="28" height="28" viewBox="0 0 28 28" fill="none" xmlns="http://www.w3.org/2000/svg">
<path d="M12.1465 23.2958C8.85497 20.8345 2.33398 15.2074 2.33398 10.1437C2.33398 6.79673 4.79012 4.0835 8.16732 4.0835C9.91732 4.0835 11.6673 4.66683 14.0007 7.00016C16.334 4.66683 18.084 4.0835 19.834 4.0835C23.2111 4.0835 25.6673 6.79673 25.6673 10.1437C25.6673 15.2074 19.1464 20.8345 15.8548 23.2958C14.7472 24.124 13.2541 24.124 12.1465 23.2958Z" fill="black" fill-opacity="0.32"/>
<path d="M12.1465 23.2958C8.85497 20.8345 2.33398 15.2074 2.33398 10.1437C2.33398 6.79673 4.79012 4.0835 8.16732 4.0835C9.91732 4.0835 11.6673 4.66683 14.0007 7.00016C16.334 4.66683 18.084 4.0835 19.834 4.0835C23.2111 4.0835 25.6673 6.79673 25.6673 10.1437C25.6673 15.2074 19.1464 20.8345 15.8548 23.2958C14.7472 24.124 13.2541 24.124 12.1465 23.2958Z" stroke="#989795" stroke-width="1.5" stroke-linecap="round" stroke-linejoin="round"/>
<path d="M12.1465 23.2958C8.85497 20.8345 2.33398 15.2074 2.33398 10.1437C2.33398 6.79673 4.79012 4.0835 8.16732 4.0835C9.91732 4.0835 11.6673 4.66683 14.0007 7.00016C16.334 4.66683 18.084 4.0835 19.834 4.0835C23.2111 4.0835 25.6673 6.79673 25.6673 10.1437C25.6673 15.2074 19.1464 20.8345 15.8548 23.2958C14.7472 24.124 13.2541 24.124 12.1465 23.2958Z" stroke="white" stroke-width="1.5" stroke-linecap="round" stroke-linejoin="round"/>
</svg>
