<svg width="64" height="64" viewBox="0 0 64 64" fill="none" xmlns="http://www.w3.org/2000/svg">
<path d="M49.7169 10.6667C49.322 9.64649 48.7828 8.79732 48.0473 8.06705C45.2942 5.33337 40.863 5.33337 32.0006 5.33337C23.1383 5.33337 18.7071 5.33337 15.9539 8.06705C15.2184 8.79732 14.6794 9.64649 14.2844 10.6667M13.334 48C13.5664 51.7851 14.2041 54.1955 15.9539 55.9331C18.7071 58.6667 23.1383 58.6667 32.0006 58.6667C40.863 58.6667 45.2942 58.6667 48.0473 55.9331C49.7972 54.1955 50.4348 51.7851 50.6673 48" stroke="#B23137" stroke-width="2" stroke-linecap="round"/>
<path d="M16 26.6666L21.3333 32M21.3333 26.6666L16 32" stroke="#B23137" stroke-width="2" stroke-linecap="round" stroke-linejoin="round"/>
<path d="M29.334 26.6666L34.6673 32M34.6673 26.6666L29.334 32" stroke="#B23137" stroke-width="2" stroke-linecap="round" stroke-linejoin="round"/>
<path d="M42.666 26.6666L47.9993 32M47.9993 26.6666L42.666 32" stroke="#B23137" stroke-width="2" stroke-linecap="round" stroke-linejoin="round"/>
<path d="M45.3333 18.6666H18.6667C13.6383 18.6666 11.1242 18.6666 9.56211 20.2287C8 21.7908 8 24.305 8 29.3333C8 34.3616 8 36.8757 9.56211 38.4378C11.1242 40 13.6383 40 18.6667 40H45.3333C50.3616 40 52.8757 40 54.4379 38.4378C56 36.8757 56 34.3616 56 29.3333C56 24.305 56 21.7908 54.4379 20.2287C52.8757 18.6666 50.3616 18.6666 45.3333 18.6666Z" stroke="#B23137" stroke-width="2" stroke-linecap="round" stroke-linejoin="round"/>
<path d="M32 50.6666V50.6933" stroke="#B23137" stroke-width="2" stroke-linecap="round" stroke-linejoin="round"/>
</svg>
