<svg width="24" height="24" viewBox="0 0 24 24" fill="none" xmlns="http://www.w3.org/2000/svg">
<path fill-rule="evenodd" clip-rule="evenodd" d="M11.5814 23.9909H11.6234C11.7495 23.7808 12.1278 23.3184 12.1278 23.3184L13.5148 21.343C13.5569 21.3009 13.5569 21.3009 13.5569 21.2589C13.6326 21.1505 13.7028 21.0382 13.767 20.9227C14.0612 20.1661 13.683 19.3255 13.1366 18.6109C13.1366 18.5689 13.0945 18.5689 13.0945 18.5269L8.89141 13.1889C8.80734 13.0628 8.68125 12.8527 8.76531 12.7266L8.59719 12.9787L7.33625 14.7441C7.08406 15.0383 7 15.3745 7 15.7108C7 16.3412 7.37828 16.9717 7.84062 17.5181L10.8669 21.427L11.2452 21.8894C11.5394 22.3097 11.7075 22.73 11.7075 23.1923C11.7066 23.4497 11.6641 23.7052 11.5814 23.9489V23.9909Z" fill="url(#paint0_linear_87_58474)"/>
<path fill-rule="evenodd" clip-rule="evenodd" d="M11.2042 1.04203L8.26201 5.11906C6.87497 7.0525 7.7156 8.85984 8.55622 9.91062C8.55622 9.91062 13.9783 16.8458 14.0203 16.8878C14.1884 17.14 14.1464 17.2661 14.1044 17.3501C14.1884 17.2661 16.248 14.3659 16.248 14.3659C17.4669 12.6847 17.0886 11.0875 15.9537 9.6164L13.2637 6.21187L12.5492 5.24515C11.8347 4.32047 11.2462 3.14359 11.2462 1.92469C11.2462 1.6725 11.2462 1.37828 11.3303 1.08406C11.3723 1.08406 11.3303 1.04203 11.3303 1.04203C11.3303 1.03088 11.3259 1.02019 11.318 1.01231C11.3101 1.00443 11.2994 1 11.2883 1C11.2462 1 11.2462 1 11.2042 1.04203Z" fill="url(#paint1_linear_87_58474)"/>
<path fill-rule="evenodd" clip-rule="evenodd" d="M9.0135 12.6006C8.97017 12.5998 8.92749 12.6112 8.89033 12.6335C8.85318 12.6558 8.82303 12.6881 8.80334 12.7267C8.67725 12.8528 8.80334 13.063 8.8874 13.1891L12.2499 17.4762H13.8891C13.9325 17.477 13.9751 17.4656 14.0123 17.4433C14.0495 17.421 14.0796 17.3888 14.0993 17.3502C14.1413 17.2661 14.1833 17.14 14.0152 16.9298C13.9732 16.8458 12.1658 14.5341 10.6527 12.6006H9.0135Z" fill="url(#paint2_linear_87_58474)"/>
<defs>
<linearGradient id="paint0_linear_87_58474" x1="10.6075" y1="11.6686" x2="10.281" y2="23.7106" gradientUnits="userSpaceOnUse">
<stop stop-color="#34F8D3"/>
<stop offset="1" stop-color="#3C4AFB"/>
</linearGradient>
<linearGradient id="paint1_linear_87_58474" x1="12.3941" y1="18.3375" x2="12.1692" y2="3.68832" gradientUnits="userSpaceOnUse">
<stop stop-color="#34F8D3"/>
<stop offset="1" stop-color="#3C4AFB"/>
</linearGradient>
<linearGradient id="paint2_linear_87_58474" x1="8.8067" y1="15.0384" x2="14.1001" y2="15.0384" gradientUnits="userSpaceOnUse">
<stop stop-color="#2F9DB2"/>
<stop offset="1" stop-color="#292A86"/>
</linearGradient>
</defs>
</svg>
