<svg width="20" height="20" viewBox="0 0 20 20" fill="none" xmlns="http://www.w3.org/2000/svg">
<path d="M10.0013 18.3337C5.39893 18.3337 1.66797 14.6027 1.66797 10.0003C1.66797 7.67321 2.62184 5.56888 4.15994 4.05701M10.0013 18.3337C9.1988 17.739 9.32689 17.0466 9.72947 16.3542C10.3485 15.2898 10.3485 15.2898 10.3485 13.8707C10.3485 12.4515 11.1918 11.7861 14.168 12.3812C15.5052 12.6487 16.4797 10.8011 18.2157 11.4112M10.0013 18.3337C14.1228 18.3337 17.5455 15.3417 18.2157 11.4112M4.15994 4.05701C4.86769 4.1317 5.26394 4.51086 5.9221 5.20629C7.17164 6.52659 8.42114 6.63676 9.25422 6.19666C10.5037 5.53652 9.45372 4.46724 10.9202 3.88614C11.8193 3.52992 11.9906 2.59698 11.5651 1.81348M4.15994 4.05701C5.66376 2.57883 7.72604 1.66699 10.0013 1.66699C10.5358 1.66699 11.0586 1.71732 11.5651 1.81348M18.2157 11.4112C18.2939 10.9526 18.3346 10.4812 18.3346 10.0003C18.3346 5.93247 15.42 2.54537 11.5651 1.81348" stroke="#141B34" stroke-width="1.5625" stroke-linejoin="round"/>
</svg>
